  <svg viewBox="0 0 2.41 1.06" width="1em" height="1em" xmlns="http://www.w3.org/2000/svg" xmlns:xlink="http://www.w3.org/1999/xlink" xml:space="preserve" style="shape-rendering:geometricPrecision; text-rendering:geometricPrecision; image-rendering:optimizeQuality; fill-rule:evenodd; clip-rule:evenodd">
  <defs>
  <style type="text/css">
   <![CDATA[
    .fil0 {fill: #9d9e9e; stroke: none}
   ]]>
  </style>
 </defs>
 <g>
   <path class="fil0" d="M2.35 0.98c0.1,-0.36 0.07,-0.54 0.01,-0.9l-0.67 0.29 0 0.32 0.66 0.29z" />
      <path class="fil0" d="M0.06 0.98l0.66 -0.29 0 -0.32 -0.67 -0.29c-0.06,0.36 -0.09,0.54 0.01,0.9z" />
      <path class="fil0" d="M0.97 0.74c0.03,0.03 0.06,0.07 0.12,0.06 0.05,-0.01 0.08,-0.06 0.07,-0.12 -0.02,-0.1 -0.2,-0.13 -0.19,0.06z" />
      <path class="fil0" d="M1.25 0.74c0.03,0.03 0.06,0.07 0.12,0.06 0.05,-0.01 0.08,-0.06 0.07,-0.12 -0.02,-0.1 -0.2,-0.13 -0.19,0.06z" />
      <path class="fil0" d="M0.97 1c0.03,0.03 0.06,0.07 0.12,0.06 0.05,-0.01 0.08,-0.06 0.07,-0.12 -0.02,-0.1 -0.2,-0.13 -0.19,0.06z" />
      <path class="fil0" d="M1.25 1c0.03,0.03 0.06,0.07 0.12,0.06 0.05,-0.01 0.08,-0.06 0.07,-0.12 -0.02,-0.1 -0.2,-0.13 -0.19,0.06z" />
      <path class="fil0" d="M0.97 0.14c0.03,0.03 0.06,0.07 0.12,0.06 0.05,-0.01 0.08,-0.06 0.07,-0.12 -0.02,-0.1 -0.2,-0.13 -0.19,0.06z" />
      <path class="fil0" d="M1.25 0.14c0.03,0.03 0.06,0.07 0.12,0.06 0.05,-0.01 0.08,-0.06 0.07,-0.12 -0.02,-0.1 -0.2,-0.13 -0.19,0.06z" />
      <path class="fil0" d="M0.97 0.4c0.03,0.03 0.06,0.07 0.12,0.06 0.05,-0.01 0.08,-0.06 0.07,-0.12 -0.02,-0.1 -0.2,-0.13 -0.19,0.06z" />
      <path class="fil0" d="M1.25 0.4c0.03,0.03 0.06,0.07 0.12,0.06 0.05,-0.01 0.08,-0.06 0.07,-0.12 -0.02,-0.1 -0.2,-0.13 -0.19,0.06z" />
      </g>
  </svg>