  <svg viewBox="0 0 0.61 0.63" width="1em" height="1em" xmlns="http://www.w3.org/2000/svg" xmlns:xlink="http://www.w3.org/1999/xlink" xml:space="preserve" style="shape-rendering:geometricPrecision; text-rendering:geometricPrecision; image-rendering:optimizeQuality; fill-rule:evenodd; clip-rule:evenodd">
  <style type="text/css">
   <![CDATA[
    .str0 {stroke:#9d9e9e;stroke-width:0;stroke-miterlimit:22.9256}
    .fil0 {fill:none; stroke:#9d9e9e}
    .fil1 {fill:#9d9e9e}
   ]]>
  </style>
  <g>
      <rect
      class="fil0"
          x="0.03"
          y="0.06"
          width="0.54"
          height="0.54"
          rx="0.11"
          ry="0.11"
          vector-effect="non-scaling-stroke"
        />
        <path
          stroke="none"
          fill="transparent"
          class="fil1" 
          d="M0.31 0.37l-0.1 -0.11c-0.01,-0.01 -0.01,-0.01 -0.01,-0.01l-0.04 -0.05c-0.03,-0.04 -0.09,0.01 -0.05,0.05 0,0 0.01,0.01 0.01,0.01l0.1 0.11c0.01,0.01 0.01,0.01 0.02,0.02 0,0 0.01,0.01 0.01,0.01l0.03 0.04c0.01,0.01 0.02,0.02 0.03,0.03 0.02,0.01 0.04,-0 0.05,-0.02 0.01,-0.02 0.02,-0.03 0.03,-0.05 0.01,-0.01 0.02,-0.03 0.03,-0.04 0.01,-0.02 0.02,-0.03 0.03,-0.05l0.15 -0.22c0.01,-0.02 0.03,-0.03 0.03,-0.05 0,-0.03 -0.03,-0.04 -0.05,-0.03 -0.02,0.01 -0.03,0.03 -0.04,0.05 -0.01,0.02 -0.02,0.03 -0.03,0.05l-0.18 0.27z"
        />
        </g>
  </svg>