  <svg viewBox="0 0 0.17 0.2" width="1em" height="1em" xmlns="http://www.w3.org/2000/svg" xmlns:xlink="http://www.w3.org/1999/xlink" xml:space="preserve" style="shape-rendering:geometricPrecision; text-rendering:geometricPrecision; image-rendering:optimizeQuality; fill-rule:evenodd; clip-rule:evenodd">
  <defs>
  <style type="text/css">
   <![CDATA[
    .fil0 {fill: #9d9e9e; stroke: none}
   ]]>
  </style>
 </defs>
  <g fill="currentColor" stroke="none">
        <path class="fil0" d="M0.11 0.09c0.01,0.03 -0.03,0.04 -0.04,0.03 -0.02,-0.02 0,-0.05 0.03,-0.04 -0.01,0.01 -0,0.02 0.01,0.02 0,-0 0,-0 0.01,-0zm0 -0.04c0.01,0.01 0.02,0.02 0.03,0.03 0,0 0.01,0.02 0,0.02 -0,0 -0,0 -0,-0 -0,-0 0,-0.01 -0.01,-0.02 -0.01,-0.01 -0.02,-0.02 -0.03,-0.03 -0.01,-0 -0.02,-0 -0.02,-0 -0,-0.01 0.02,-0 0.03,0zm0.04 0.06c0,-0.03 -0.02,-0.06 -0.06,-0.07 -0.04,-0 -0.06,0.02 -0.07,0.05 -0,0.04 0.02,0.06 0.05,0.07 0.04,0 0.06,-0.02 0.07,-0.06z" />
        <path class="fil0" d="M-0 0.04c0.01,-0 0.01,-0.01 0.02,-0.01 0.01,-0 0.01,-0.01 0.02,-0.01 0.04,-0.02 0.09,-0.01 0.12,0.02 0,0 0.01,0 0.01,0.01 -0.01,-0.01 -0.02,-0.02 -0.03,-0.03 -0.03,-0.02 -0.07,-0.02 -0.1,-0 -0.01,0 -0.01,0.01 -0.02,0.01 -0,0 -0.01,0.01 -0.02,0.02z" />
        <path class="fil0" d="M0 0.17c0.01,0.01 0.02,0.02 0.03,0.03 0.01,0.01 0.03,0.01 0.05,0.01 0.03,-0 0.05,-0.01 0.07,-0.03 0,-0 0,-0.01 0.01,-0.01 -0.01,0.01 -0.02,0.01 -0.03,0.02 -0.04,0.02 -0.08,0.01 -0.12,-0.01 -0,-0 -0.01,-0 -0.01,-0.01z" />
    </g>
  </svg>